# Blender 4.0.0
# www.blender.org
o button_cancel
v -0.033429 -0.126295 -0.062532
v -0.033878 -0.126295 -0.062083
v -0.051635 -0.126295 -0.062083
v -0.052084 -0.126295 -0.062532
v -0.033429 -0.131096 -0.062532
v -0.033878 -0.131545 -0.062532
v -0.033878 -0.131096 -0.062083
v -0.051635 -0.131545 -0.062532
v -0.052084 -0.131096 -0.062532
v -0.051635 -0.131096 -0.062083
v -0.033878 -0.126295 -0.071171
v -0.033429 -0.126295 -0.070722
v -0.052084 -0.126295 -0.070722
v -0.051635 -0.126295 -0.071171
v -0.033878 -0.131096 -0.071171
v -0.033878 -0.131545 -0.070722
v -0.033429 -0.131096 -0.070722
v -0.052084 -0.131096 -0.070722
v -0.051635 -0.131545 -0.070722
v -0.051635 -0.131096 -0.071171
vn 0.9987 -0.0001 0.0519
vn 0.9953 -0.0831 0.0496
vn 0.9953 -0.0831 -0.0496
vn -0.0236 -0.0843 0.9962
vn 0.0236 -0.0842 0.9962
vn 0.0246 -0.0000 0.9997
vn 0.0240 -0.9984 0.0513
vn -0.0240 -0.9984 0.0513
vn -0.0239 -0.9984 -0.0513
vn -0.0246 -0.0000 -0.9997
vn 0.0246 -0.0000 -0.9997
vn 0.0235 -0.0843 -0.9962
vn -0.9953 -0.0831 0.0496
vn -0.9987 -0.0000 0.0519
vn -0.9987 0.0001 -0.0519
vn 0.0240 -0.9984 -0.0513
vn -0.9953 -0.0831 -0.0496
vn -0.0235 -0.0842 -0.9962
vn 0.9987 -0.0000 -0.0519
vn -0.0246 -0.0000 0.9997
vn -0.0000 1.0000 -0.0000
vt 0.823681 0.841071
vt 0.823681 0.771720
vt 0.669518 0.844873
vt 0.819879 0.844873
vt 0.819879 0.841071
vt 0.669518 0.841071
vt 0.669518 0.771720
vt 0.669518 0.767917
vt 0.819879 0.767917
vt 0.665716 0.841071
vt 0.665716 0.771720
vt 0.819879 0.771720
s 1
f 1/1/1 5/1/2 17/2/3
f 10/3/4 7/4/5 2/4/6
f 6/5/7 8/6/8 19/7/9
f 14/8/10 11/9/11 15/9/12
f 9/10/13 4/10/14 13/11/15
f 5/1/2 7/4/5 6/5/7
f 8/6/8 10/3/4 9/10/13
f 15/9/12 17/2/3 16/12/16
f 18/11/17 20/8/18 19/7/9
f 5/1/2 1/1/1 2/4/6
f 8/6/8 6/5/7 7/4/5
f 15/9/12 11/9/11 12/2/19
f 18/11/17 13/11/15 14/8/10
f 17/2/3 5/1/2 6/5/7
f 20/8/18 15/9/12 16/12/16
f 10/3/4 3/3/20 4/10/14
f 19/7/9 8/6/8 9/10/13
f 11/9/21 2/4/21 12/2/21
f 1/1/1 17/2/3 12/2/19
f 10/3/4 2/4/6 3/3/20
f 6/5/7 19/7/9 16/12/16
f 14/8/10 15/9/12 20/8/18
f 9/10/13 13/11/15 18/11/17
f 5/1/2 2/4/6 7/4/5
f 8/6/8 7/4/5 10/3/4
f 15/9/12 12/2/19 17/2/3
f 18/11/17 14/8/10 20/8/18
f 17/2/3 6/5/7 16/12/16
f 20/8/18 16/12/16 19/7/9
f 10/3/4 4/10/14 9/10/13
f 19/7/9 9/10/13 18/11/17
f 12/2/21 2/4/21 1/1/21
f 2/4/21 14/8/21 3/3/21
f 3/3/21 14/8/21 4/10/21
f 4/10/21 14/8/21 13/11/21
f 14/8/21 2/4/21 11/9/21
